<svg xmlns="http://www.w3.org/2000/svg" viewBox="0 0 1011.28 762.68"><defs><style>.cls-1{fill:#fff;}</style></defs><g id="レイヤー_2" data-name="レイヤー 2"><g id="レイヤー_1-2" data-name="レイヤー 1"><path id="合体_3-2" data-name="合体 3-2" class="cls-1" d="M321.53,7.83c62.62,16.79,112.63,58.32,143.9,112.81a34.64,34.64,0,1,1,11,21.35,273.46,273.46,0,0,1,11.85,30.64q15,2.46,30.1,6.49a307.51,307.51,0,0,1,38.85,13.23A261.22,261.22,0,0,1,622.05,156a25.61,25.61,0,0,1,47.38-19.46A25.91,25.91,0,0,1,671,142a296.13,296.13,0,0,1,132,5.3c146.25,39.2,236,178.25,200.59,310.57-17.69,66-63.21,117.86-122.54,148.4a73.77,73.77,0,1,1-109.28,29.93,298,298,0,0,1-81.42-5.93,290.66,290.66,0,0,1-54.95,59.38,38.67,38.67,0,1,1-56.3,36.25A304.78,304.78,0,0,1,228,666.1a75.32,75.32,0,1,1-65.15-100.62,291.63,291.63,0,0,1-12.44-40.14,229.8,229.8,0,0,1-47.73-27.26c-.15.83-.33,1.66-.55,2.49a29.63,29.63,0,1,1-36.2-36.31C8.65,399.37-15.44,303,10.25,207.19,49.3,61.47,188.67-27.78,321.53,7.83Z"/></g></g></svg>